# xmcd CD database file
#
# Track frame offsets:
#	150
#	21334
#	43368
#	63371
#	84547
#	103507
#	127160
#	148151
#	168946
#	190291
#	209230
#	231118
#	256972
#	275155
#	295596
#	314750
#	317532
#
# Disc length: 4406 seconds
#
# Revision: 12
# Processed by: cddbd v1.5.1PL2 Copyright (c) Steve Scherf et al.
# Submitted via: CDex 1.51
#
DISCID=10113411
DTITLE=女子十二楽坊 - 敦煌 -Romantic Energy-
DYEAR=2005
DGENRE=Instrumental Pop
TTITLE0=流転
TTITLE1=大地の囁き
TTITLE2=敦煌
TTITLE3=最初から今まで
TTITLE4=花
TTITLE5=疏勒河
TTITLE6=莫高窟
TTITLE7=Romantic Energy
TTITLE8=ヤルダンの天女
TTITLE9=異邦人
TTITLE10=陽関古道
TTITLE11=花まつり
TTITLE12=月牙泉
TTITLE13=コンドルは飛んで行く
TTITLE14=盛唐楽坊
TTITLE15=十面埋伏
TTITLE16=LOVERS
EXTD=YEAR: 2005
EXTT0=
EXTT1=
EXTT2=
EXTT3=
EXTT4=
EXTT5=
EXTT6=
EXTT7=
EXTT8=
EXTT9=
EXTT10=
EXTT11=
EXTT12=
EXTT13=
EXTT14=
EXTT15=
EXTT16=
PLAYORDER=
